<?xml version="1.0" encoding="UTF-8" standalone="no"?>
<svg
   xmlns:dc="http://purl.org/dc/elements/1.1/"
   xmlns:cc="http://creativecommons.org/ns#"
   xmlns:rdf="http://www.w3.org/1999/02/22-rdf-syntax-ns#"
   xmlns:svg="http://www.w3.org/2000/svg"
   xmlns="http://www.w3.org/2000/svg"
   xmlns:sodipodi="http://sodipodi.sourceforge.net/DTD/sodipodi-0.dtd"
   xmlns:inkscape="http://www.inkscape.org/namespaces/inkscape"
   id="svg_document"
   preserveAspectRatio="xMidYMid meet"
   viewBox="0 0 32 32"
   height="32"
   width="32"
   version="1.1"
   inkscape:version="0.91 r13725"
   sodipodi:docname="icon.svg">
  <sodipodi:namedview
     pagecolor="#ffffff"
     bordercolor="#666666"
     borderopacity="1"
     objecttolerance="10"
     gridtolerance="10"
     guidetolerance="10"
     inkscape:pageopacity="0"
     inkscape:pageshadow="2"
     inkscape:window-width="1956"
     inkscape:window-height="1153"
     id="namedview4203"
     showgrid="false"
     inkscape:zoom="13.135215"
     inkscape:cx="42.231678"
     inkscape:cy="28.480854"
     inkscape:window-x="45"
     inkscape:window-y="52"
     inkscape:window-maximized="0"
     inkscape:current-layer="svg_document" />
  <metadata
     id="metadata4256">
    <rdf:RDF>
      <cc:Work
         rdf:about="">
        <dc:format>image/svg+xml</dc:format>
        <dc:type
           rdf:resource="http://purl.org/dc/dcmitype/StillImage" />
        <dc:title>Untitled.svg</dc:title>
      </cc:Work>
    </rdf:RDF>
  </metadata>
  <title
     id="svg_document_title">Untitled.svg</title>
  <defs
     id="svg_document_defs" />
  <g
     id="main_group"
     transform="translate(0,-468)" />
  <polygon
     transform="matrix(0.06393656,0,0,0.06393656,0.02396868,0.00556468)"
     id="polygon1"
     points="9,19 "
     style="fill:#ffffff;stroke:#000000;stroke-width:3px" />
  <line
     y1="0.0055546602"
     x1="6.3536887"
     d=""
     id="line1"
     y2="0.0055546602"
     x2="6.3536887"
     style="stroke:#000000;stroke-width:0.19180968px" />
  <path
     style="fill:#6995ec;fill-opacity:1;stroke:none;stroke-width:3px"
     d="m 14.101376,0.12495468 -2.782864,0.31793 -1.089419,4.34357002 2.100041,3.20007 3.971935,0.70093 1.158475,-5.58733 -1.328931,-0.43232 -2.029237,-2.54285002 z"
     id="path4282"
     inkscape:connector-curvature="0" />
  <path
     style="fill:#aec6f5;fill-opacity:1;stroke:none;stroke-width:3px"
     d="m 18.647741,3.4866147 -1.261374,6.24043 0.436442,4.3645503 8.029658,-0.24638 2.047469,-2.72268 0.231894,-5.2762603 -6.725327,-1.46217 -2.758762,-0.89749 z"
     id="path4280"
     inkscape:connector-curvature="0" />
  <path
     style="fill:#aec6f5;fill-opacity:1;stroke:none;stroke-width:3px"
     d="m 5.4628223,5.0834047 -1.1595994,0.38137 0.7537521,4.7677703 -4.87016792,-0.19068 0.5797997,3.36915 6.31948012,4.64053 0.8216842,2.88301 3.3310699,0.13599 5.646398,-6.38629 -0.132618,-1.5577 -5.319098,-0.46716 0.31806,-3.8162203 -1.9494409,-3.18696 -3.4696826,1.84279 -0.8696372,-2.4156 z"
     id="path4278"
     inkscape:connector-curvature="0" />
  <path
     style="fill:#467de7;fill-opacity:1;stroke:none;stroke-width:3px"
     d="m 12.484855,9.0718247 -0.194557,2.8866403 4.386773,0.28072 -0.21229,-2.4946503 -3.979926,-0.67271 z"
     id="path4276"
     inkscape:connector-curvature="0" />
  <path
     style="fill:#467de7;fill-opacity:1;stroke:none;stroke-width:3px"
     d="m 25.213351,14.694995 -5.166124,0.39036 1.393992,5.79038 -3.564214,1.6184 0.955303,2.0421 -3.699455,3.271 -0.80158,3.86829 2.668977,0.23414 2.550969,-0.82643 0,-3.24203 2.956816,-2.22492 5.623795,1.77998 3.768511,-3.30559 -2.898748,-4.64065 -0.927705,-4.51339 -2.898874,-0.19069 0.03834,-0.051 z"
     id="path4274"
     inkscape:connector-curvature="0" />
  <path
     style="fill:#aec6f5;fill-opacity:1;stroke:none;stroke-width:3px"
     d="m 19.084307,15.158035 -1.163095,0.0879 -5.74555,6.17925 2.178464,1.82594 6.035761,-2.7258 -1.30558,-5.3673 z"
     id="path4272"
     inkscape:connector-curvature="0" />
  <path
     style="fill:#6995ec;fill-opacity:1;stroke:none;stroke-width:3px"
     d="m 8.1613951,21.824175 0.08429,0.29583 -2.6669788,7.94611 5.6237947,1.33493 2.078563,0.18232 1.034099,-4.24342 3.387764,-2.84268 -0.616514,-1.64424 -2.849173,1.29372 -2.582937,-2.26014 -3.4929089,-0.0624 z"
     id="polygon2"
     inkscape:connector-curvature="0" />
</svg>
