<?xml version="1.0" encoding="UTF-8" standalone="no"?>
<svg
   xmlns:dc="http://purl.org/dc/elements/1.1/"
   xmlns:cc="http://creativecommons.org/ns#"
   xmlns:rdf="http://www.w3.org/1999/02/22-rdf-syntax-ns#"
   xmlns:svg="http://www.w3.org/2000/svg"
   xmlns="http://www.w3.org/2000/svg"
   xmlns:sodipodi="http://sodipodi.sourceforge.net/DTD/sodipodi-0.dtd"
   xmlns:inkscape="http://www.inkscape.org/namespaces/inkscape"
   version="1.1"
   width="32"
   height="32"
   viewBox="0 0 32 32"
   preserveAspectRatio="xMidYMid meet"
   id="svg_document"
   inkscape:version="0.91 r13725"
   sodipodi:docname="icon_2.svg">
  <metadata
     id="metadata38">
    <rdf:RDF>
      <cc:Work
         rdf:about="">
        <dc:format>image/svg+xml</dc:format>
        <dc:type
           rdf:resource="http://purl.org/dc/dcmitype/StillImage" />
        <dc:title>Untitled.svg</dc:title>
      </cc:Work>
    </rdf:RDF>
  </metadata>
  <sodipodi:namedview
     pagecolor="#ffffff"
     bordercolor="#666666"
     borderopacity="1"
     objecttolerance="10"
     gridtolerance="10"
     guidetolerance="10"
     inkscape:pageopacity="0"
     inkscape:pageshadow="2"
     inkscape:window-width="1786"
     inkscape:window-height="1166"
     id="namedview36"
     showgrid="false"
     inkscape:zoom="15.104"
     inkscape:cx="16.009214"
     inkscape:cy="19.173007"
     inkscape:window-x="0"
     inkscape:window-y="0"
     inkscape:window-maximized="0"
     inkscape:current-layer="svg_document" />
  <title
     id="svg_document_title">Untitled.svg</title>
  <defs
     id="svg_document_defs" />
  <g
     id="main_group"
     transform="translate(0,-968)" />
  <polygon
     points="560,85 559,101 617,109 623,97 659,106 648,119 654,142 600,171 588,184 537,201 528,225 511,234 467,302 475,339 495,351 460,376 441,426 415,429 394,446 375,484 362,478 352,479 345,487 255,484 246,498 219,503 197,532 180,520 176,522 155,490 149,472 129,456 101,454 95,430 127,389 119,389 106,372 126,335 117,326 96,292 125,290 129,266 119,258 134,249 126,201 165,163 162,155 144,158 143,137 112,135 105,144 75,142 64,148 57,143 64,133 55,125 26,140 25,124 29,106 5,67 9,50 27,38 57,34 54,25 94,8 110,21 263,34 295,25 328,37 343,28 369,41 407,39 411,55 514,86 518,70 "
     id="polygon1"
     style="fill:#aec6f5;stroke:#000000;stroke-width:0px"
     transform="matrix(0.04527094,0,0,0.04527094,-0.12572377,3.4535736)" />
  <circle
     cy="10.968548"
     r="0.90541881"
     cx="25.769253"
     id="circle7"
     style="fill:#1a55c7;stroke:#000000;stroke-width:0px" />
  <polygon
     points="665,285 645,285 643,272 601,298 611,305 616,298 641,319 "
     id="polygon2"
     style="fill:#aec6f5;stroke:#000000;stroke-width:0px"
     transform="matrix(0.04527094,0,0,0.04527094,-0.12572377,3.4535736)" />
  <polygon
     points="561,328 544,341 553,348 571,334 "
     id="polygon3"
     style="fill:#aec6f5;stroke:#000000;stroke-width:0px"
     transform="matrix(0.04527094,0,0,0.04527094,-0.12572377,3.4535736)" />
  <polygon
     points="707,284 706,273 696,264 679,264 681,274 "
     id="polygon4"
     style="fill:#aec6f5;stroke:#000000;stroke-width:0px"
     transform="matrix(0.04527094,0,0,0.04527094,-0.12572377,3.4535736)" />
  <circle
     id="circle1"
     cy="5.8982105"
     r="0.90541881"
     cx="9.5622578"
     style="fill:#1a55c7;stroke:#000000;stroke-width:0px" />
  <circle
     id="circle2"
     cy="5.9434729"
     r="0.90541881"
     cx="11.599449"
     style="fill:#1a55c7;stroke:#000000;stroke-width:0px" />
  <circle
     cy="7.5732293"
     id="circle3"
     r="0.90541881"
     cx="10.512947"
     style="fill:#1a55c7;stroke:#000000;stroke-width:0px" />
  <circle
     id="circle4"
     cy="9.8820429"
     r="0.90541881"
     cx="27.399006"
     style="fill:#1a55c7;stroke:#000000;stroke-width:0px" />
  <circle
     cx="10.965657"
     id="circle5"
     cy="15.586185"
     r="0.90541881"
     style="fill:#1a55c7;stroke:#000000;stroke-width:0px" />
  <circle
     cy="15.721996"
     id="circle8"
     r="0.90541881"
     cx="12.957578"
     style="fill:#1a55c7;stroke:#000000;stroke-width:0px" />
  <circle
     cy="14.001698"
     id="circle9"
     r="0.90541881"
     cx="12.09743"
     style="fill:#1a55c7;stroke:#000000;stroke-width:0px" />
  <circle
     cy="17.261213"
     id="circle10"
     r="0.90541881"
     cx="11.871077"
     style="fill:#1a55c7;stroke:#000000;stroke-width:0px" />
  <circle
     cy="19.298403"
     id="circle11"
     r="0.90541881"
     cx="20.246199"
     style="fill:#1a55c7;stroke:#000000;stroke-width:0px" />
  <circle
     cy="21.018702"
     id="circle12"
     r="0.90541881"
     cx="19.204967"
     style="fill:#1a55c7;stroke:#000000;stroke-width:0px" />
  <circle
     cy="19.298403"
     id="circle13"
     r="0.90541881"
     cx="18.209007"
     style="fill:#1a55c7;stroke:#000000;stroke-width:0px" />
  <circle
     cy="21.063971"
     id="circle14"
     r="0.90541881"
     cx="17.122505"
     style="fill:#1a55c7;stroke:#000000;stroke-width:0px" />
  <circle
     cy="19.253132"
     id="circle15"
     r="0.90541881"
     cx="16.036001"
     style="fill:#1a55c7;stroke:#000000;stroke-width:0px" />
  <circle
     cy="21.063971"
     id="circle16"
     r="0.90541881"
     cx="15.085312"
     style="fill:#1a55c7;stroke:#000000;stroke-width:0px" />
  <circle
     cy="17.532839"
     id="circle17"
     r="0.90541881"
     cx="17.303587"
     style="fill:#1a55c7;stroke:#000000;stroke-width:0px" />
  <circle
     cy="17.487568"
     id="circle18"
     r="0.90541881"
     cx="19.43132"
     style="fill:#1a55c7;stroke:#000000;stroke-width:0px" />
  <circle
     cy="9.6556883"
     id="circle19"
     r="0.90541881"
     cx="17.077234"
     style="fill:#1a55c7;stroke:#000000;stroke-width:0px" />
  <circle
     cy="10.515838"
     id="circle20"
     r="0.90541881"
     cx="18.888071"
     style="fill:#1a55c7;stroke:#000000;stroke-width:0px" />
  <circle
     cy="11.602345"
     id="circle21"
     r="0.90541881"
     cx="17.213045"
     style="fill:#1a55c7;stroke:#000000;stroke-width:0px" />
  <circle
     cy="23.055889"
     id="circle22"
     r="0.90541881"
     cx="8.294672"
     style="fill:#1a55c7;stroke:#000000;stroke-width:0px" />
  <circle
     cy="23.236975"
     id="circle23"
     r="0.90541881"
     cx="10.377134"
     style="fill:#1a55c7;stroke:#000000;stroke-width:0px" />
  <circle
     cy="21.290327"
     id="circle25"
     r="0.90541881"
     cx="7.3892512"
     style="fill:#1a55c7;stroke:#000000;stroke-width:0px" />
  <circle
     cy="21.335598"
     id="circle26"
     r="0.90541881"
     cx="9.3811741"
     style="fill:#1a55c7;stroke:#000000;stroke-width:0px" />
  <circle
     cy="24.821459"
     id="circle24"
     r="0.90541881"
     cx="9.1548195"
     style="fill:#1a55c7;stroke:#000000;stroke-width:0px" />
  <circle
     cy="9.0218945"
     id="circle6"
     r="0.90541881"
     cx="25.723982"
     style="fill:#1a55c7;stroke:#000000;stroke-width:0px" />
</svg>
