<svg version="1.1" viewBox="0.0 0.0 369.93700787401576 372.0" fill="none" stroke="none" stroke-linecap="square" stroke-miterlimit="10" xmlns:xlink="http://www.w3.org/1999/xlink" xmlns="http://www.w3.org/2000/svg"><clipPath id="p.0"><path d="m0 0l369.937 0l0 372.0l-369.937 0l0 -372.0z" clip-rule="nonzero"/></clipPath><g clip-path="url(#p.0)"><path fill="#000000" fill-opacity="0.0" d="m0 0l369.937 0l0 372.0l-369.937 0z" fill-rule="evenodd"/><path fill="#000000" fill-opacity="0.0" d="m60.280838 -16.104986l336.9134 0l0 116.34646l-336.9134 0z" fill-rule="evenodd"/><path fill="#000000" d="m83.39021 47.429382l0 22.265625l-7.5 0l0 -56.875l20.96875 0q9.34375 0 14.625 4.765626q5.296875 4.765625 5.296875 12.609375q0 8.281248 -5.171875 12.765623q-5.171875 4.46875 -14.828125 4.46875l-13.390625 0zm0 -6.140625l13.46875 0q6.015625 0 9.21875 -2.828125q3.203125 -2.828125 3.203125 -8.187498q0 -5.078125 -3.203125 -8.125q-3.203125 -3.046875 -8.78125 -3.15625l-13.90625 0l0 22.296873zm67.49219 28.40625q-0.625 -1.25 -1.015625 -4.453125q-5.03125 5.234375 -12.03125 5.234375q-6.25 0 -10.25 -3.53125q-4.0 -3.546875 -4.0 -8.96875q0 -6.609375 5.015625 -10.25q5.015625 -3.65625 14.125 -3.65625l7.03125 0l0 -3.328125q0 -3.78125 -2.265625 -6.03125q-2.265625 -2.25 -6.6875 -2.25q-3.859375 0 -6.484375 1.953125q-2.609375 1.953125 -2.609375 4.734375l-7.265625 0q0 -3.171875 2.234375 -6.109375q2.25 -2.953123 6.09375 -4.671873q3.859375 -1.71875 8.46875 -1.71875q7.296875 0 11.4375 3.65625q4.140625 3.640623 4.296875 10.046873l0 19.453125q0 5.828125 1.484375 9.265625l0 0.625l-7.578125 0zm-11.984375 -5.515625q3.390625 0 6.4375 -1.75q3.046875 -1.765625 4.421875 -4.578125l0 -8.671875l-5.671875 0q-13.28125 0 -13.28125 7.78125q0 3.390625 2.265625 5.3125q2.265625 1.90625 5.828125 1.90625zm49.84375 -30.265625q-1.640625 -0.28125 -3.5625 -0.28125q-7.109375 0 -9.640625 6.0625l0 30.0l-7.234375 0l0 -42.265625l7.03125 0l0.125 4.874998q3.546875 -5.656248 10.078125 -5.656248q2.109375 0 3.203125 0.546875l0 6.718748zm31.164062 35.78125q-0.625 -1.25 -1.015625 -4.453125q-5.03125 5.234375 -12.03125 5.234375q-6.25 0 -10.25 -3.53125q-4.0 -3.546875 -4.0 -8.96875q0 -6.609375 5.015625 -10.25q5.015625 -3.65625 14.125 -3.65625l7.03125 0l0 -3.328125q0 -3.78125 -2.265625 -6.03125q-2.265625 -2.25 -6.6875 -2.25q-3.859375 0 -6.484375 1.953125q-2.609375 1.953125 -2.609375 4.734375l-7.265625 0q0 -3.171875 2.234375 -6.109375q2.25 -2.953123 6.09375 -4.671873q3.859375 -1.71875 8.46875 -1.71875q7.296875 0 11.4375 3.65625q4.140625 3.640623 4.296875 10.046873l0 19.453125q0 5.828125 1.484375 9.265625l0 0.625l-7.578125 0zm-11.984375 -5.515625q3.390625 0 6.4375 -1.75q3.046875 -1.765625 4.421875 -4.578125l0 -8.671875l-5.671875 0q-13.28125 0 -13.28125 7.78125q0 3.390625 2.265625 5.3125q2.265625 1.90625 5.828125 1.90625zm36.203125 -36.75l0.203125 4.687498q4.640625 -5.468748 12.531265 -5.468748q8.875 0 12.078125 6.796873q2.109375 -3.046873 5.484375 -4.921873q3.375 -1.875 7.984375 -1.875q13.90625 0 14.140625 14.718748l0 28.328125l-7.21875 0l0 -27.890625q0 -4.53125 -2.078125 -6.78125q-2.0625 -2.25 -6.953125 -2.25q-4.015625 0 -6.671875 2.40625q-2.65625 2.40625 -3.09375 6.46875l0 28.046875l-7.265625 0l0 -27.703125q0 -9.21875 -9.01564 -9.21875q-7.109375 0 -9.734375 6.0625l0 30.859375l-7.21875 0l0 -42.265625l6.828125 0z" fill-rule="nonzero"/><path fill="#4a86e8" d="m14.343832 181.24934l0 0c0 -25.309433 20.517344 -45.826767 45.826775 -45.826767l0 0c12.154011 0 23.81023 4.8281555 32.404423 13.422348c8.594185 8.594177 13.422348 20.250397 13.422348 32.40442l0 0c0 25.309433 -20.517342 45.826767 -45.82677 45.826767l0 0c-25.30943 0 -45.826775 -20.517334 -45.826775 -45.826767z" fill-rule="evenodd"/><path fill="#ffffff" d="m39.472443 149.13911l55.55905 32.11023l-55.55905 32.11023z" fill-rule="evenodd"/><path fill="#4a86e8" d="m14.343832 299.64304l0 0c0 -25.309418 20.517344 -45.826767 45.826775 -45.826767l0 0c12.154011 0 23.81023 4.828171 32.404423 13.422348c8.594185 8.594208 13.422348 20.250427 13.422348 32.40442l0 0c0 25.309448 -20.517342 45.826782 -45.82677 45.826782l0 0c-25.30943 0 -45.826775 -20.517334 -45.826775 -45.826782z" fill-rule="evenodd"/><path fill="#ffffff" d="m39.472443 267.5328l55.55905 32.11023l-55.55905 32.11026z" fill-rule="evenodd"/><path fill="#000000" fill-opacity="0.0" d="m122.8294 123.07612l336.91336 0l0 116.34646l-336.91336 0z" fill-rule="evenodd"/><path fill="#000000" d="m169.84502 194.03236l-23.828125 0l-5.359375 14.84375l-7.734375 0l21.71875 -56.875l6.5625 0l21.765625 56.875l-7.703125 0l-5.421875 -14.84375zm-21.5625 -6.171875l19.328125 0l-9.6875 -26.609375l-9.640625 26.609375zm76.90625 0.34375q0 9.65625 -4.421875 15.5625q-4.40625 5.890625 -11.9375 5.890625q-7.703125 0 -12.109375 -4.890625l0 20.359375l-7.234375 0l0 -58.515625l6.609375 0l0.34375 4.6875q4.421875 -5.46875 12.265625 -5.46875q7.625 0 12.046875 5.75q4.4375 5.734375 4.4375 15.96875l0 0.65625zm-7.21875 -0.8125q0 -7.15625 -3.046875 -11.296875q-3.046875 -4.140625 -8.359375 -4.140625q-6.5625 0 -9.84375 5.828125l0 20.1875q3.234375 5.78125 9.921875 5.78125q5.1875 0 8.25 -4.109375q3.078125 -4.125 3.078125 -12.25zm52.101578 0.8125q0 9.65625 -4.421875 15.5625q-4.40625 5.890625 -11.937515 5.890625q-7.703125 0 -12.109375 -4.890625l0 20.359375l-7.234375 0l0 -58.515625l6.609375 0l0.34375 4.6875q4.421875 -5.46875 12.265625 -5.46875q7.6250153 0 12.04689 5.75q4.4375 5.734375 4.4375 15.96875l0 0.65625zm-7.21875 -0.8125q0 -7.15625 -3.046875 -11.296875q-3.046875 -4.140625 -8.35939 -4.140625q-6.5625 0 -9.84375 5.828125l0 20.1875q3.234375 5.78125 9.921875 5.78125q5.1875153 0 8.250015 -4.109375q3.078125 -4.125 3.078125 -12.25zm24.257812 21.484375l-7.234375 0l0 -60.0l7.234375 0l0 60.0zm29.101562 0.78125q-8.59375 0 -13.984375 -5.640625q-5.390625 -5.65625 -5.390625 -15.109375l0 -1.328125q0 -6.28125 2.390625 -11.21875q2.40625 -4.953125 6.71875 -7.734375q4.328125 -2.796875 9.359375 -2.796875q8.25 0 12.8125 5.4375q4.578125 5.421875 4.578125 15.53125l0 3.015625l-28.640625 0q0.15625 6.25 3.65625 10.09375q3.5 3.84375 8.890625 3.84375q3.828125 0 6.484375 -1.5625q2.65625 -1.5625 4.640625 -4.140625l4.421875 3.4375q-5.3125 8.171875 -15.9375 8.171875zm-0.90625 -37.890625q-4.375 0 -7.34375 3.1875q-2.96875 3.171875 -3.671875 8.921875l21.171875 0l0 -0.546875q-0.3125 -5.515625 -2.96875 -8.53125q-2.65625 -3.03125 -7.1875 -3.03125z" fill-rule="nonzero"/><path fill="#000000" fill-opacity="0.0" d="m128.09448 249.62466l336.9134 0l0 116.346466l-336.9134 0z" fill-rule="evenodd"/><path fill="#000000" d="m158.15698 308.97153l-6.953125 7.234375l0 19.21875l-7.5 0l0 -56.875l7.5 0l0 28.125l25.265625 -28.125l9.0625 0l-22.375 25.109375l24.140625 31.765625l-8.984375 0l-20.15625 -26.453125zm42.421875 26.453125l-7.234375 0l0 -42.265625l7.234375 0l0 42.265625zm-7.8125 -53.484375q0 -1.75 1.0625 -2.953125q1.078125 -1.21875 3.1875 -1.21875q2.109375 0 3.203125 1.21875q1.09375 1.203125 1.09375 2.96875q0 1.75 -1.09375 2.921875q-1.09375 1.171875 -3.203125 1.171875q-2.109375 0 -3.1875 -1.171875q-1.0625 -1.171875 -1.0625 -2.9375zm56.789062 43.515625l8.125 -32.296875l7.234375 0l-12.3125 42.265625l-5.859375 0l-10.265625 -32.03125l-10.0 32.03125l-5.859375 0l-12.265625 -42.265625l7.1875 0l8.3125 31.640625l9.84375 -31.640625l5.828125 0l10.03125 32.296875zm30.554688 9.96875l-7.234375 0l0 -42.265625l7.234375 0l0 42.265625zm-7.8125 -53.484375q0 -1.75 1.0625 -2.953125q1.078125 -1.21875 3.1875 -1.21875q2.109375 0 3.203125 1.21875q1.09375 1.203125 1.09375 2.96875q0 1.75 -1.09375 2.921875q-1.09375 1.171875 -3.203125 1.171875q-2.109375 0 -3.1875 -1.171875q-1.0625 -1.171875 -1.0625 -2.9375z" fill-rule="nonzero"/></g></svg>