<?xml version="1.0" encoding="UTF-8" standalone="no"?>
<svg
   viewBox="0 0 48 48"
   width="32px"
   height="32px"
   version="1.1"
   id="svg20"
   sodipodi:docname="icon.svg"
   inkscape:version="1.2.2 (b0a8486541, 2022-12-01, custom)"
   xmlns:inkscape="http://www.inkscape.org/namespaces/inkscape"
   xmlns:sodipodi="http://sodipodi.sourceforge.net/DTD/sodipodi-0.dtd"
   xmlns="http://www.w3.org/2000/svg"
   xmlns:svg="http://www.w3.org/2000/svg">
  <defs
     id="defs24">
    <rect
       x="6.0898847"
       y="5.8183962"
       width="31.85718"
       height="31.822852"
       id="rect238" />
  </defs>
  <sodipodi:namedview
     id="namedview22"
     pagecolor="#ffffff"
     bordercolor="#000000"
     borderopacity="0.25"
     inkscape:showpageshadow="2"
     inkscape:pageopacity="0.0"
     inkscape:pagecheckerboard="0"
     inkscape:deskcolor="#d1d1d1"
     showgrid="false"
     inkscape:zoom="5.7254998"
     inkscape:cx="-3.0565017"
     inkscape:cy="24.801328"
     inkscape:window-width="1292"
     inkscape:window-height="704"
     inkscape:window-x="0"
     inkscape:window-y="0"
     inkscape:window-maximized="1"
     inkscape:current-layer="text236" />
  <g
     aria-label="&lt;/&gt; HTML HTML   HTML"
     transform="matrix(1.5,0,0,1.5,-26.887579,-42.227594)"
     id="text236">
    <path
       d="m 29.804057,36.074559 -4.972102,2.147699 4.972102,2.127565 v 1.228217 l -6.182955,-2.805433 v -1.114119 l 6.182955,-2.805433 z"
       id="path429"
       style="fill:#467de7;fill-opacity:1;stroke:#467de7;stroke-width:0.534676;stroke-dasharray:none;stroke-opacity:1" />
    <path
       d="m 35.51905,32.504007 h 1.111412 l -4.597733,11.295559 h -1.117261 z"
       id="path432"
       style="fill:#467de7;fill-opacity:1;stroke:#467de7;stroke-width:0.534676;stroke-dasharray:none;stroke-opacity:1" />
    <path
       d="m 38.046048,36.074559 v -1.221504 l 6.182956,2.805433 v 1.114119 l -6.182956,2.805433 v -1.228217 l 4.972102,-2.127565 z"
       id="path435"
       style="fill:#467de7;fill-opacity:1;stroke:#467de7;stroke-width:0.534676;stroke-dasharray:none;stroke-opacity:1" />
    <path
       d="m 20.357079,47.952683 h 1.186112 v 3.540368 h 3.23113 v -3.540368 h 1.18611 v 8.636879 h -1.18611 v -4.113075 h -3.23113 v 4.113075 h -1.186112 z"
       id="path438"
       style="fill:#467de7;fill-opacity:1;stroke:#467de7;stroke-width:0.332695;stroke-dasharray:none;stroke-opacity:1" />
    <path
       d="m 27.035526,47.952683 h 6.655076 v 0.983435 h -2.72864 v 7.653444 h -1.18611 v -7.653444 h -2.740326 z"
       id="path441"
       style="fill:#467de7;fill-opacity:1;stroke:#467de7;stroke-width:0.332695;stroke-dasharray:none;stroke-opacity:1" />
    <path
       d="m 34.467709,47.952683 h 1.577585 l 1.507472,4.396536 1.519156,-4.396536 h 1.58343 v 8.636879 h -1.092625 v -7.630304 l -1.554214,4.552729 H 37.114548 L 35.55449,48.959258 v 7.630304 h -1.086781 z"
       id="path444"
       style="fill:#467de7;fill-opacity:1;stroke:#467de7;stroke-width:0.332695;stroke-dasharray:none;stroke-opacity:1" />
    <path
       d="m 42.425754,47.952683 h 1.186111 v 7.653445 h 4.212737 v 0.983434 h -5.398848 z"
       id="path447"
       style="fill:#467de7;fill-opacity:1;stroke:#467de7;stroke-width:0.332695;stroke-dasharray:none;stroke-opacity:1" />
  </g>
</svg>
