<?xml version="1.0" encoding="UTF-8" standalone="yes"?><svg xmlns:dc="http://purl.org/dc/elements/1.1/" xmlns:cc="http://creativecommons.org/ns#" xmlns:rdf="http://www.w3.org/1999/02/22-rdf-syntax-ns#" xmlns:svg="http://www.w3.org/2000/svg" xmlns="http://www.w3.org/2000/svg" xmlns:sodipodi="http://sodipodi.sourceforge.net/DTD/sodipodi-0.dtd" xmlns:inkscape="http://www.inkscape.org/namespaces/inkscape" style="zoom: 1;" id="svg_document" preserveAspectRatio="xMidYMid meet" viewBox="0 0 500 500" height="500px" width="500px" version="1.1" inkscape:version="0.91 r13725" sodipodi:docname="france3.svg"><sodipodi:namedview pagecolor="#ffffff" bordercolor="#666666" borderopacity="1" objecttolerance="10" gridtolerance="10" guidetolerance="10" inkscape:pageopacity="0" inkscape:pageshadow="2" inkscape:window-width="1573" inkscape:window-height="1093" id="namedview4203" showgrid="false" inkscape:zoom="1.6419019" inkscape:cx="149.65757" inkscape:cy="248.48371" inkscape:window-x="45" inkscape:window-y="52" inkscape:window-maximized="0" inkscape:current-layer="svg_document"></sodipodi:namedview><metadata id="metadata4256"><rdf:RDF><cc:Work rdf:about=""><dc:format>image/svg+xml</dc:format><dc:type rdf:resource="http://purl.org/dc/dcmitype/StillImage"></dc:type><dc:title>Untitled.svg</dc:title></cc:Work></rdf:RDF></metadata><title id="svg_document_title">Untitled.svg</title><defs id="svg_document_defs"></defs><g id="main_group"></g><polygon transform="" fill="#ffffff" stroke-width="3px" id="polygon1" stroke="#000000" points="9,19"></polygon><line stroke="#000000" y1="0px" stroke-width="3px" x1="99px" d="" id="line1" y2="0px" x2="99px" transform=""></line><path style="fill:#6995ec;stroke:none;stroke-width:3px;fill-opacity:1" d="m 220.17773,1.8671875 -43.52539,4.9726563 -17.03906,67.9355472 32.8457,50.050779 62.12305,10.96289 18.11914,-87.388669 -20.78515,-6.761719 -31.73829,-39.7714845 z" id="path4282"></path><path style="fill:#aec6f5;stroke:none;stroke-width:3px;fill-opacity:1" d="m 291.28516,54.445312 -19.72852,97.603518 6.82617,68.26367 125.58789,-3.85352 32.02344,-42.58398 3.62695,-82.523438 -105.1875,-22.86914 -43.14843,-14.03711 z" id="path4280"></path><path style="fill:#aec6f5;stroke:none;stroke-width:3px;fill-opacity:1" d="m 85.066406,79.419922 -18.136718,5.964844 11.789062,74.570314 -76.171875,-2.98242 9.068359,52.69531 98.839846,72.58008 12.85156,45.09179 52.09961,2.12696 88.3125,-99.88477 -2.07422,-24.36328 -83.19336,-7.30664 4.97461,-59.6875 L 152.93555,88.378906 98.667969,117.20117 85.066406,79.419922 Z" id="path4278"></path><path style="fill:#467de7;stroke:none;stroke-width:3px;fill-opacity:1" d="m 194.89453,141.80078 -3.04297,45.14844 68.61133,4.39062 -3.32031,-39.01757 -62.24805,-10.52149 z" id="path4276"></path><path style="fill:#467de7;stroke:none;stroke-width:3px;fill-opacity:1" d="m 393.97461,229.75 -80.80078,6.10547 21.80273,90.56445 -55.74609,25.3125 14.94141,31.93946 -57.86133,51.16015 -12.53711,60.50195 41.74414,3.66211 39.89844,-12.92578 0,-50.70703 46.24609,-34.79883 87.95898,27.83985 58.94141,-51.70118 -45.33789,-72.58203 -14.50977,-70.59179 -45.33984,-2.98242 0.59961,-0.79688 z" id="path4274"></path><path style="fill:#aec6f5;stroke:none;stroke-width:3px;fill-opacity:1" d="m 298.11328,236.99219 -18.1914,1.375 -89.86329,96.64648 34.07227,28.5586 94.40234,-42.63282 -20.41992,-83.94726 z" id="path4272"></path><path style="fill:#6995ec;stroke:none;stroke-width:3px;fill-opacity:1" d="m 127.27344,341.25391 1.31836,4.62695 -41.712894,124.28125 87.958984,20.87891 32.50977,2.85156 16.17382,-66.36914 52.98633,-44.46094 -9.64258,-25.7168 -44.5625,20.23438 -40.39843,-35.34961 -54.63086,-0.97656 z" id="polygon2"></path></svg>