<?xml version="1.0" encoding="utf-8" standalone="yes"?>
<!DOCTYPE svg PUBLIC "-//W3C//DTD SVG 1.1//EN" "http://www.w3.org/Graphics/SVG/1.1/DTD/svg11.dtd">
<svg xmlns="http://www.w3.org/2000/svg" xmlns:xlink="http://www.w3.org/1999/xlink" xmlns:dc="http://purl.org/dc/elements/1.1/" xmlns:cc="http://web.resource.org/cc/" xmlns:rdf="http://www.w3.org/1999/02/22-rdf-syntax-ns#" xmlns:sodipodi="http://sodipodi.sourceforge.net/DTD/sodipodi-0.dtd" xmlns:inkscape="http://www.inkscape.org/namespaces/inkscape" version="1.1" baseProfile="full" width="500px" height="500px" viewBox="0 0 500 500" preserveAspectRatio="xMidYMid meet" id="svg_document" style="zoom: 1;"><title id="svg_document_title">Untitled.svg</title><defs id="svg_document_defs"></defs><g id="main_group"></g><rect stroke="#000000" height="60px" x="100px" y="20px" stroke-width="0" id="rect25" width="60px" fill="#7aa2ee" transform=""></rect><rect stroke="#000000" height="60px" x="180px" y="20px" stroke-width="0" id="rect4" width="60px" fill="#7aa2ee" transform=""></rect><rect stroke="#000000" height="60px" x="260px" y="20px" stroke-width="0" id="rect2" width="60px" fill="#7aa2ee" transform=""></rect><rect stroke="#000000" height="60px" x="340px" y="20px" stroke-width="0" width="60px" id="rect26" fill="#7aa2ee" transform=""></rect><rect stroke="#000000" height="60px" x="420px" id="rect27" stroke-width="0" width="60px" y="20px" fill="#F6BB68" transform=""></rect><rect stroke="#000000" height="60px" x="20px" y="100px" stroke-width="0" id="rect28" width="60px" fill="#7aa2ee" transform=""></rect><rect stroke="#000000" height="60px" x="100px" id="rect29" stroke-width="0" width="60px" y="100px" fill="#F6BB68" transform=""></rect><rect stroke="#000000" height="60px" x="180px" y="100px" stroke-width="0" id="rect30" width="60px" fill="#7aa2ee" transform=""></rect><rect stroke="#000000" height="60px" x="260px" id="rect31" stroke-width="0" width="60px" y="100px" fill="#F6BB68" transform=""></rect><rect stroke="#000000" height="60px" x="340px" y="100px" stroke-width="0" id="rect32" width="60px" fill="#7aa2ee" transform=""></rect><rect stroke="#000000" height="60px" x="420px" id="rect33" stroke-width="0" width="60px" y="100px" fill="#F6BB68" transform=""></rect><rect stroke="#000000" height="60px" x="20px" y="180px" stroke-width="0" id="rect5" width="60px" fill="#7aa2ee" transform=""></rect><rect stroke="#000000" height="60px" x="100px" id="rect10" stroke-width="0" width="60px" y="180px" fill="#F6BB68" transform=""></rect><rect stroke="#000000" height="60px" x="180px" id="rect15" stroke-width="0" width="60px" y="180px" fill="#F6BB68" transform=""></rect><rect stroke="#000000" height="60px" x="260px" id="rect20" stroke-width="0" width="60px" y="180px" fill="#F6BB68" transform=""></rect><rect stroke="#000000" height="60px" x="340px" y="180px" stroke-width="0" id="rect34" width="60px" fill="#7aa2ee" transform=""></rect><rect stroke="#000000" height="60px" x="420px" y="180px" stroke-width="0" id="rect35" width="60px" fill="#7aa2ee" transform=""></rect><rect stroke="#000000" height="60px" x="20px" id="rect6" stroke-width="0" width="60px" y="260px" fill="#F6BB68" transform=""></rect><rect stroke="#000000" height="60px" x="100px" y="260px" stroke-width="0" id="rect11" width="60px" fill="#7aa2ee" transform=""></rect><rect stroke="#000000" height="60px" x="180px" y="260px" stroke-width="0" id="rect16" width="60px" fill="#7aa2ee" transform=""></rect><rect stroke="#000000" height="60px" x="260px" id="rect21" stroke-width="0" width="60px" y="260px" fill="#F6BB68" transform=""></rect><rect stroke="#000000" height="60px" x="340px" y="260px" stroke-width="0" id="rect36" width="60px" fill="#7aa2ee" transform=""></rect><rect stroke="#000000" height="60px" x="20px" id="rect7" stroke-width="0" width="60px" y="340px" fill="#F6BB68" transform=""></rect><rect stroke="#000000" height="60px" x="100px" y="340px" stroke-width="0" id="rect12" width="60px" fill="#7aa2ee" transform=""></rect><rect stroke="#000000" height="60px" x="180px" id="rect17" stroke-width="0" width="60px" y="340px" fill="#F6BB68" transform=""></rect><rect stroke="#000000" height="60px" x="260px" y="340px" stroke-width="0" id="rect22" width="60px" fill="#7aa2ee" transform=""></rect><rect stroke="#000000" height="60px" x="340px" id="rect38" stroke-width="0" width="60px" y="340px" fill="#F6BB68" transform=""></rect><rect stroke="#000000" height="60px" x="20px" y="419px" stroke-width="0" id="rect8" width="60px" fill="#7aa2ee" transform=""></rect><rect stroke="#000000" height="60px" x="100px" id="rect13" stroke-width="0" width="60px" y="420px" fill="#F6BB68" transform=""></rect><rect stroke="#000000" height="60px" x="180px" y="420px" stroke-width="0" id="rect18" width="60px" fill="#7aa2ee" transform=""></rect><rect stroke="#000000" height="60px" x="260px" y="420px" stroke-width="0" id="rect23" width="60px" fill="#7aa2ee" transform=""></rect><rect stroke="#000000" height="60px" x="340px" y="420px" stroke-width="0" id="rect40" width="60px" fill="#7aa2ee" transform=""></rect></svg>