<?xml version="1.0" encoding="UTF-8" standalone="no"?>
<svg
   version="1.1"
   width="32"
   height="32"
   viewBox="0 0 32 32"
   preserveAspectRatio="xMidYMid meet"
   id="svg_document"
   inkscape:version="1.3.2 (091e20e, 2023-11-25, custom)"
   sodipodi:docname="icon.svg"
   xmlns:inkscape="http://www.inkscape.org/namespaces/inkscape"
   xmlns:sodipodi="http://sodipodi.sourceforge.net/DTD/sodipodi-0.dtd"
   xmlns="http://www.w3.org/2000/svg"
   xmlns:svg="http://www.w3.org/2000/svg"
   xmlns:rdf="http://www.w3.org/1999/02/22-rdf-syntax-ns#"
   xmlns:cc="http://creativecommons.org/ns#"
   xmlns:dc="http://purl.org/dc/elements/1.1/">
  <metadata
     id="metadata7540">
    <rdf:RDF>
      <cc:Work
         rdf:about="">
        <dc:format>image/svg+xml</dc:format>
        <dc:type
           rdf:resource="http://purl.org/dc/dcmitype/StillImage" />
        <dc:title>Untitled.svg</dc:title>
      </cc:Work>
    </rdf:RDF>
  </metadata>
  <sodipodi:namedview
     pagecolor="#ffffff"
     bordercolor="#666666"
     borderopacity="1"
     objecttolerance="10"
     gridtolerance="10"
     guidetolerance="10"
     inkscape:pageopacity="0"
     inkscape:pageshadow="2"
     inkscape:window-width="3840"
     inkscape:window-height="2089"
     id="namedview7538"
     showgrid="false"
     inkscape:zoom="16.000001"
     inkscape:cx="-5.2812498"
     inkscape:cy="39.156248"
     inkscape:window-x="-8"
     inkscape:window-y="-8"
     inkscape:window-maximized="1"
     inkscape:current-layer="svg_document"
     inkscape:showpageshadow="2"
     inkscape:pagecheckerboard="0"
     inkscape:deskcolor="#d1d1d1" />
  <title
     id="svg_document_title">Untitled.svg</title>
  <defs
     id="svg_document_defs">
    <rect
       x="2.1213202"
       y="2.2980969"
       width="27.400387"
       height="26.074561"
       id="rect1" />
  </defs>
  <g
     id="main_group"
     transform="translate(0,-468)" />
  <ellipse
     cx="16.550953"
     id="circle6"
     cy="9.1868334"
     style="fill:#467de7;stroke:#000000;stroke-width:0"
     rx="14.169218"
     ry="7.3295288" />
  <path
     sodipodi:type="star"
     style="fill:#fffffa;fill-opacity:1"
     id="path8455"
     sodipodi:sides="3"
     sodipodi:cx="15.291184"
     sodipodi:cy="15.736545"
     sodipodi:r1="10.253048"
     sodipodi:r2="5.126524"
     sodipodi:arg1="0"
     sodipodi:arg2="1.0471976"
     inkscape:flatsided="false"
     inkscape:rounded="0"
     inkscape:randomized="0"
     d="m 25.544232,15.736545 -7.689786,4.4397 -7.689786,4.4397 0,-8.879401 0,-8.8793994 7.689787,4.4397004 z"
     inkscape:transform-center-x="-1.428945"
     transform="matrix(0.55747127,0,0,0.59685024,8.0465669,-0.35058254)" />

  <path
     style="font-weight:bold;font-size:14.6667px;line-height:1.35;font-family:Lato;-inkscape-font-specification:'Lato Bold';font-variant-ligatures:none;letter-spacing:0px;word-spacing:0px;fill:#467de7;stroke-width:0.512012"
     d="m 8.2988611,26.615533 v 1.356669 H 2.432181 v -1.356669 h 2.1486716 v -6.182015 q 0,-0.366667 0.022,-0.755335 l -1.5253369,1.276003 q -0.1320003,0.102667 -0.2640006,0.132 -0.1246669,0.022 -0.2420005,0 -0.1100003,-0.022 -0.1980005,-0.07333 -0.088,-0.05867 -0.1320003,-0.124667 L 1.6695126,20.103518 4.90352,17.353511 h 1.4886701 v 9.262022 z m 1.7820029,3.15334 q -0.132,-0.11 -0.132,-0.271334 0,-0.05867 0.036667,-0.132 0.044,-0.07333 0.1026673,-0.132 0.08067,-0.088 0.198,-0.220001 0.117334,-0.124667 0.234667,-0.293334 0.117334,-0.161334 0.212667,-0.359334 0.102667,-0.190667 0.154001,-0.410668 -0.234667,0 -0.425335,-0.08067 -0.190667,-0.088 -0.33,-0.234667 -0.132001,-0.146667 -0.2126674,-0.344667 -0.073334,-0.198001 -0.073334,-0.432668 0,-0.205334 0.073334,-0.381334 0.080666,-0.183334 0.2200004,-0.315334 0.139334,-0.139334 0.337334,-0.212667 0.198001,-0.08067 0.432668,-0.08067 0.278667,0 0.484001,0.102667 0.212667,0.09533 0.344667,0.271334 0.139334,0.168667 0.205334,0.396001 0.07333,0.22 0.07333,0.469334 0,0.352001 -0.110001,0.740668 -0.102666,0.388668 -0.308,0.777335 -0.205334,0.388668 -0.513335,0.755336 -0.300667,0.366667 -0.689335,0.674668 z m 9.760679,-3.483341 q 0.293334,0 0.462001,0.168667 0.176,0.161334 0.176,0.432667 v 1.085336 h -7.274683 v -0.601334 q 0,-0.183334 0.07333,-0.381335 0.08067,-0.205333 0.249334,-0.366667 l 3.219341,-3.226674 q 0.403334,-0.410668 0.718668,-0.784669 0.322668,-0.374001 0.535335,-0.740668 0.212667,-0.366668 0.322667,-0.740668 0.117334,-0.381335 0.117334,-0.799336 0,-0.381334 -0.11,-0.667334 -0.110001,-0.293334 -0.315334,-0.491335 -0.198001,-0.198 -0.484002,-0.293334 -0.278667,-0.102667 -0.630668,-0.102667 -0.322667,0 -0.601334,0.09533 -0.271334,0.088 -0.484001,0.256667 -0.212668,0.161334 -0.359335,0.381334 -0.146667,0.220001 -0.22,0.484001 -0.124667,0.337334 -0.322668,0.447335 -0.198,0.11 -0.572001,0.05133 l -0.953335,-0.168667 q 0.11,-0.762668 0.425334,-1.33467 0.315334,-0.579334 0.784668,-0.960669 0.476668,-0.388667 1.085336,-0.579334 0.616002,-0.198001 1.320003,-0.198001 0.733335,0 1.342003,0.220001 0.608668,0.212667 1.041336,0.608668 0.432668,0.396001 0.674668,0.953335 0.242001,0.557335 0.242001,1.239337 0,0.586668 -0.176001,1.085335 -0.168667,0.498668 -0.462001,0.953336 -0.286,0.454668 -0.674668,0.880002 -0.388667,0.425334 -0.814002,0.865335 L 15.7862,26.498199 q 0.344668,-0.102667 0.682002,-0.154 0.344667,-0.05867 0.652668,-0.05867 z m 2.178004,3.483341 q -0.132,-0.11 -0.132,-0.271334 0,-0.05867 0.03667,-0.132 0.044,-0.07333 0.102667,-0.132 0.08067,-0.088 0.198001,-0.220001 0.117333,-0.124667 0.234667,-0.293334 0.117333,-0.161334 0.212667,-0.359334 0.102667,-0.190667 0.154,-0.410668 -0.234667,0 -0.425334,-0.08067 -0.190667,-0.088 -0.330001,-0.234667 -0.132,-0.146667 -0.212667,-0.344667 -0.07333,-0.198001 -0.07333,-0.432668 0,-0.205334 0.07333,-0.381334 0.08067,-0.183334 0.220001,-0.315334 0.139333,-0.139334 0.337334,-0.212667 0.198,-0.08067 0.432667,-0.08067 0.278668,0 0.484002,0.102667 0.212667,0.09533 0.344667,0.271334 0.139334,0.168667 0.205334,0.396001 0.07333,0.22 0.07333,0.469334 0,0.352001 -0.11,0.740668 -0.102667,0.388668 -0.308001,0.777335 -0.205333,0.388668 -0.513334,0.755336 -0.300668,0.366667 -0.689335,0.674668 z m 3.358664,-9.445355 q 0.11,-0.762668 0.425334,-1.33467 0.315334,-0.579334 0.784668,-0.960669 0.476668,-0.388667 1.085336,-0.579334 0.616002,-0.198001 1.320003,-0.198001 0.733335,0 1.320003,0.212667 0.594002,0.205334 1.012003,0.579335 0.418001,0.366668 0.638001,0.865335 0.227334,0.498668 0.227334,1.078003 0,0.506001 -0.117334,0.894669 -0.11,0.381334 -0.322667,0.667335 -0.212667,0.286 -0.528001,0.484001 -0.315334,0.198 -0.711335,0.33 0.953335,0.300668 1.42267,0.916669 0.469334,0.616002 0.469334,1.547337 0,0.792002 -0.293334,1.40067 -0.293334,0.608668 -0.792002,1.026669 -0.498668,0.410668 -1.158669,0.623335 -0.652668,0.212667 -1.386003,0.212667 -0.799335,0 -1.393337,-0.183334 Q 26.786214,27.722868 26.346213,27.363534 25.906212,27.0042 25.598211,26.483532 25.29021,25.962864 25.07021,25.280863 l 0.799335,-0.330001 q 0.315334,-0.132 0.586668,-0.066 0.278667,0.05867 0.403334,0.293334 0.132001,0.256667 0.286001,0.506001 0.161334,0.249334 0.381334,0.447334 0.220001,0.190668 0.513335,0.315334 0.300667,0.117334 0.711335,0.117334 0.462001,0 0.806668,-0.146667 0.344668,-0.154 0.572002,-0.396001 0.234667,-0.242 0.344667,-0.535334 0.117334,-0.300668 0.117334,-0.601335 0,-0.381334 -0.08067,-0.689335 -0.08067,-0.315334 -0.337334,-0.535335 -0.256668,-0.22 -0.740669,-0.344667 -0.476667,-0.124667 -1.283336,-0.124667 v -1.29067 q 0.667335,-0.0073 1.107336,-0.124667 0.440001,-0.117333 0.696668,-0.322667 0.264001,-0.212667 0.366668,-0.506001 0.102667,-0.293334 0.102667,-0.645335 0,-0.748002 -0.418001,-1.136669 -0.418001,-0.388668 -1.11467,-0.388668 -0.322667,0 -0.594001,0.09533 -0.271334,0.088 -0.491334,0.256667 -0.212668,0.161334 -0.359335,0.381334 -0.146667,0.220001 -0.22,0.484001 -0.124667,0.337334 -0.330001,0.447335 -0.198,0.11 -0.564668,0.05133 z"
     id="text2"
     transform="scale(0.95410552,1.0481021)"
     aria-label="1,2,3" />
</svg>
