<?xml version="1.0" encoding="UTF-8" standalone="no"?>
<svg
   xmlns:dc="http://purl.org/dc/elements/1.1/"
   xmlns:cc="http://creativecommons.org/ns#"
   xmlns:rdf="http://www.w3.org/1999/02/22-rdf-syntax-ns#"
   xmlns:svg="http://www.w3.org/2000/svg"
   xmlns="http://www.w3.org/2000/svg"
   xmlns:sodipodi="http://sodipodi.sourceforge.net/DTD/sodipodi-0.dtd"
   xmlns:inkscape="http://www.inkscape.org/namespaces/inkscape"
   id="svg_document"
   preserveAspectRatio="xMidYMid meet"
   viewBox="0 0 32 32"
   height="32"
   width="32"
   version="1.1"
   inkscape:version="0.92.4 (5da689c313, 2019-01-14)"
   sodipodi:docname="icon.svg"
   style="zoom: 16;">
  <sodipodi:namedview
     pagecolor="#ffffff"
     bordercolor="#666666"
     borderopacity="1"
     objecttolerance="10"
     gridtolerance="10"
     guidetolerance="10"
     inkscape:pageopacity="0"
     inkscape:pageshadow="2"
     inkscape:window-width="1680"
     inkscape:window-height="1006"
     id="namedview5538"
     showgrid="false"
     inkscape:zoom="10.680141"
     inkscape:cx="25.243315"
     inkscape:cy="17.114839"
     inkscape:window-x="0"
     inkscape:window-y="0"
     inkscape:window-maximized="0"
     inkscape:current-layer="svg_document" />
  <metadata
     id="metadata4256">
    <rdf:RDF>
      <cc:Work
         rdf:about="">
        <dc:format>image/svg+xml</dc:format>
        <dc:type
           rdf:resource="http://purl.org/dc/dcmitype/StillImage" />
        <dc:title>Untitled.svg</dc:title>
      </cc:Work>
    </rdf:RDF>
  </metadata>
  <title
     id="svg_document_title">Untitled.svg</title>
  <defs
     id="svg_document_defs" />
  <g
     id="main_group"
     transform="translate(0,-468)" />
  <polygon
     transform="matrix(0.06718168,0,0,0.06718168,-0.96780753,0.11720219)"
     id="polygon1"
     points="9,19"
     style="fill:#ffffff;stroke:#000000;stroke-width:3px" />
  <line
     y1="0.11720562"
     x1="5.6831789"
     d=""
     id="line1"
     y2="0.11720562"
     x2="5.6831789"
     style="stroke:#000000;stroke-width:0.20154504px" />
  <text
     x="15.912285"
     style="font-weight:bold;font-size:10.54661083px;line-height:0%;font-family:Helvetica;text-anchor:middle;fill:#7ca4eb;stroke:none;stroke-width:0.65411001px;text-rendering:geometricPrecision"
     font-weight="bold"
     y="29.97464"
     id="text1"
     font-size="240px">DEMO</text>
  <path
     id="path2193"
     d="M 24.566831,6.863477 C 24.491531,6.559926 24.111673,6.457062 23.890481,6.678254 L 21.390807,9.177927 19.108965,8.797732 18.72877,6.51589 21.228443,4.0162164 C 21.45098,3.7936796 21.343746,3.414493 21.038178,3.3385212 19.445459,2.9438714 17.691721,3.3691117 16.446927,4.6135698 15.114395,5.9461015 14.747647,7.877667 15.302308,9.56182 l -7.1732826,7.173283 c -0.8400596,0.840059 -0.8400596,2.202173 0,3.042233 0.8400596,0.840059 2.2021736,0.840059 3.0422326,0 l 7.167232,-7.167232 c 1.684826,0.56172 3.612693,0.190938 4.953965,-1.150334 1.246139,-1.246138 1.670707,-3.002566 1.274376,-4.596293 z M 9.650478,19.062663 c -0.4454098,0 -0.80678,-0.36137 -0.80678,-0.80678 0,-0.445746 0.3613702,-0.80678 0.80678,-0.80678 0.44541,0 0.80678,0.361034 0.80678,0.80678 0,0.44541 -0.36137,0.80678 -0.80678,0.80678 z"
     inkscape:connector-curvature="0"
     style="fill:#ffc36a;stroke-width:0.03361583;fill-opacity:1" />
</svg>
